<?plantuml 1.2026.2?><svg xmlns="http://www.w3.org/2000/svg" xmlns:xlink="http://www.w3.org/1999/xlink" contentStyleType="text/css" data-diagram-type="DESCRIPTION" height="375px" preserveAspectRatio="none" style="width:729px;height:375px;background:#FFFFFF;" version="1.1" viewBox="0 0 729 375" width="729px" zoomAndPan="magnify"><defs/><g><!--entity Tilstandsmaskin--><g class="entity" data-qualified-name="Tilstandsmaskin" data-source-line="4" id="ent0002"><rect fill="#F1F1F1" height="37.6094" rx="2.5" ry="2.5" style="stroke:#181818;stroke-width:0.5;" width="120.3652" x="223.5" y="228"/><text fill="#000000" font-family="sans-serif" font-size="14" lengthAdjust="spacing" textLength="100.3652" x="233.5" y="252.5332">Tilstandsmaskin</text></g><!--entity Eventmanager--><g class="entity" data-qualified-name="Eventmanager" data-source-line="4" id="ent0003"><rect fill="#F1F1F1" height="37.6094" rx="2.5" ry="2.5" style="stroke:#181818;stroke-width:0.5;" width="111.0547" x="228" y="328.5"/><text fill="#000000" font-family="sans-serif" font-size="14" lengthAdjust="spacing" textLength="91.0547" x="238" y="353.0332">Eventmanager</text></g><!--entity Etasje-knapper--><g class="entity" data-qualified-name="Etasje-knapper" data-source-line="5" id="ent0005"><rect fill="#F1F1F1" height="37.6094" rx="2.5" ry="2.5" style="stroke:#181818;stroke-width:0.5;" width="114.165" x="374.5" y="328.5"/><text fill="#000000" font-family="sans-serif" font-size="14" lengthAdjust="spacing" textLength="94.165" x="384.5" y="353.0332">Etasje-knapper</text></g><!--entity Aktuatorer--><g class="entity" data-qualified-name="Aktuatorer" data-source-line="6" id="ent0007"><rect fill="#F1F1F1" height="37.6094" rx="2.5" ry="2.5" style="stroke:#181818;stroke-width:0.5;" width="84.5859" x="103" y="228"/><text fill="#000000" font-family="sans-serif" font-size="14" lengthAdjust="spacing" textLength="64.5859" x="113" y="252.5332">Aktuatorer</text></g><!--entity Lys--><g class="entity" data-qualified-name="Lys" data-source-line="7" id="ent0009"><rect fill="#F1F1F1" height="37.6094" rx="2.5" ry="2.5" style="stroke:#181818;stroke-width:0.5;" width="41.7861" x="378.5" y="228"/><text fill="#000000" font-family="sans-serif" font-size="14" lengthAdjust="spacing" textLength="21.7861" x="388.5" y="252.5332">Lys</text></g><!--entity Sensorer--><g class="entity" data-qualified-name="Sensorer" data-source-line="8" id="ent0011"><rect fill="#F1F1F1" height="37.6094" rx="2.5" ry="2.5" style="stroke:#181818;stroke-width:0.5;" width="76.8066" x="226" y="127.5"/><text fill="#000000" font-family="sans-serif" font-size="14" lengthAdjust="spacing" textLength="56.8066" x="236" y="152.0332">Sensorer</text></g><g class="entity" data-qualified-name="GMN13" data-source-line="11" id="ent0014"><path d="M208.5,6 L208.5,65.0547 A0,0 0 0 0 208.5,65.0547 L260.5,65.0547 L264.5,127.3 L268.5,65.0547 L320.5381,65.0547 A0,0 0 0 0 320.5381,65.0547 L320.5381,16 L310.5381,6 L208.5,6 A0,0 0 0 0 208.5,6" fill="#FEFFDD" style="stroke:#181818;stroke-width:0.5;"/><path d="M310.5381,6 L310.5381,16 L320.5381,16 L310.5381,6" fill="#FEFFDD" style="stroke:#181818;stroke-width:0.5;"/><text fill="#000000" font-family="sans-serif" font-size="13" lengthAdjust="spacing" textLength="91.0381" x="214.5" y="24.4951">Etasje-sensorer</text><text fill="#000000" font-family="sans-serif" font-size="13" lengthAdjust="spacing" textLength="80.9199" x="214.5" y="40.8467">Obstruksjoner</text><text fill="#000000" font-family="sans-serif" font-size="13" lengthAdjust="spacing" textLength="73.7217" x="214.5" y="57.1982">Stopp-knapp</text></g><g class="entity" data-qualified-name="GMN16" data-source-line="17" id="ent0017"><path d="M338,125 L338,167.7031 A0,0 0 0 0 338,167.7031 L393.31,167.7031 L310.25,227.7 L401.31,167.7031 L516.5361,167.7031 A0,0 0 0 0 516.5361,167.7031 L516.5361,135 L506.5361,125 L338,125 A0,0 0 0 0 338,125" fill="#FEFFDD" style="stroke:#181818;stroke-width:0.5;"/><path d="M506.5361,125 L506.5361,135 L516.5361,135 L506.5361,125" fill="#FEFFDD" style="stroke:#181818;stroke-width:0.5;"/><text fill="#000000" font-family="sans-serif" font-size="13" lengthAdjust="spacing" textLength="157.5361" x="344" y="143.4951">Der alle hovedtingene skjer</text><text fill="#000000" font-family="sans-serif" font-size="13" lengthAdjust="spacing" textLength="141.6416" x="344" y="159.8467">Outputs basert p&#229; inputs</text></g><g class="entity" data-qualified-name="GMN19" data-source-line="22" id="ent0020"><path d="M456,234 L456,243 L420.66,247 L456,251 L456,260.3516 A0,0 0 0 0 456,260.3516 L595.479,260.3516 A0,0 0 0 0 595.479,260.3516 L595.479,244 L585.479,234 L456,234 A0,0 0 0 0 456,234" fill="#FEFFDD" style="stroke:#181818;stroke-width:0.5;"/><path d="M585.479,234 L585.479,244 L595.479,244 L585.479,234" fill="#FEFFDD" style="stroke:#181818;stroke-width:0.5;"/><text fill="#000000" font-family="sans-serif" font-size="13" lengthAdjust="spacing" textLength="118.479" x="462" y="252.4951">Outputs i form av lys</text></g><g class="entity" data-qualified-name="GMN22" data-source-line="26" id="ent0023"><path d="M524,326 L524,343.5 L488.88,347.5 L524,351.5 L524,368.7031 A0,0 0 0 0 524,368.7031 L722.7788,368.7031 A0,0 0 0 0 722.7788,368.7031 L722.7788,336 L712.7788,326 L524,326 A0,0 0 0 0 524,326" fill="#FEFFDD" style="stroke:#181818;stroke-width:0.5;"/><path d="M712.7788,326 L712.7788,336 L722.7788,336 L712.7788,326" fill="#FEFFDD" style="stroke:#181818;stroke-width:0.5;"/><text fill="#000000" font-family="sans-serif" font-size="13" lengthAdjust="spacing" textLength="177.7788" x="530" y="344.4951">Knappene som bestiller heisen</text><text fill="#000000" font-family="sans-serif" font-size="13" lengthAdjust="spacing" textLength="97.5508" x="530" y="360.8467">Hvor den skal g&#229;</text></g><g class="entity" data-qualified-name="GMN25" data-source-line="31" id="ent0026"><path d="M6,326 L6,368.7031 A0,0 0 0 0 6,368.7031 L193.188,368.7031 A0,0 0 0 0 193.188,368.7031 L193.188,351.5 L227.83,347.5 L193.188,343.5 L193.188,336 L183.188,326 L6,326 A0,0 0 0 0 6,326" fill="#FEFFDD" style="stroke:#181818;stroke-width:0.5;"/><path d="M183.188,326 L183.188,336 L193.188,336 L183.188,326" fill="#FEFFDD" style="stroke:#181818;stroke-width:0.5;"/><text fill="#000000" font-family="sans-serif" font-size="13" lengthAdjust="spacing" textLength="166.188" x="12" y="344.4951">Den som holder kontroll over</text><text fill="#000000" font-family="sans-serif" font-size="13" lengthAdjust="spacing" textLength="158.2217" x="12" y="360.8467">hvilke etasjer som er i k&#248;en</text></g><g class="entity" data-qualified-name="GMN28" data-source-line="36" id="ent0029"><path d="M118.5,133.5 L118.5,159.8516 A0,0 0 0 0 118.5,159.8516 L141.5,159.8516 L145.5,227.79 L149.5,159.8516 L172.73,159.8516 A0,0 0 0 0 172.73,159.8516 L172.73,143.5 L162.73,133.5 L118.5,133.5 A0,0 0 0 0 118.5,133.5" fill="#FEFFDD" style="stroke:#181818;stroke-width:0.5;"/><path d="M162.73,133.5 L162.73,143.5 L172.73,143.5 L162.73,133.5" fill="#FEFFDD" style="stroke:#181818;stroke-width:0.5;"/><text fill="#000000" font-family="sans-serif" font-size="13" lengthAdjust="spacing" textLength="33.23" x="124.5" y="151.9951">Motor</text></g><!--link Tilstandsmaskin to Eventmanager--><g class="link" data-entity-1="ent0002" data-entity-2="ent0003" data-link-type="dependency" data-source-line="4" id="lnk4"><path d="M283.5,272.07 C283.5,289.73 283.5,304.48 283.5,322.21" fill="none" id="Tilstandsmaskin-Eventmanager" style="stroke:#181818;stroke-width:1;"/><polygon fill="#181818" points="283.5,266.07,279.5,275.07,283.5,271.07,287.5,275.07,283.5,266.07" style="stroke:#181818;stroke-width:1;"/><polygon fill="#181818" points="283.5,328.21,287.5,319.21,283.5,323.21,279.5,319.21,283.5,328.21" style="stroke:#181818;stroke-width:1;"/></g><!--reverse link Eventmanager to Etasje-knapper--><g class="link" data-entity-1="ent0003" data-entity-2="ent0005" data-link-type="dependency" data-source-line="5" id="lnk6"><path d="M345.29,347.5 C356.94,347.5 362.58,347.5 374.23,347.5" fill="none" id="Eventmanager-backto-Etasje-knapper" style="stroke:#181818;stroke-width:1;"/><polygon fill="#181818" points="339.29,347.5,348.29,351.5,344.29,347.5,348.29,343.5,339.29,347.5" style="stroke:#181818;stroke-width:1;"/></g><!--reverse link Aktuatorer to Tilstandsmaskin--><g class="link" data-entity-1="ent0007" data-entity-2="ent0002" data-link-type="dependency" data-source-line="6" id="lnk8"><path d="M194.09,247 C205.89,247 211.69,247 223.49,247" fill="none" id="Aktuatorer-backto-Tilstandsmaskin" style="stroke:#181818;stroke-width:1;"/><polygon fill="#181818" points="188.09,247,197.09,251,193.09,247,197.09,243,188.09,247" style="stroke:#181818;stroke-width:1;"/></g><!--link Tilstandsmaskin to Lys--><g class="link" data-entity-1="ent0002" data-entity-2="ent0009" data-link-type="dependency" data-source-line="7" id="lnk10"><path d="M343.77,247 C355.23,247 360.7,247 372.16,247" fill="none" id="Tilstandsmaskin-to-Lys" style="stroke:#181818;stroke-width:1;"/><polygon fill="#181818" points="378.16,247,369.16,243,373.16,247,369.16,251,378.16,247" style="stroke:#181818;stroke-width:1;"/></g><!--link Sensorer to Tilstandsmaskin--><g class="link" data-entity-1="ent0011" data-entity-2="ent0002" data-link-type="dependency" data-source-line="8" id="lnk12"><path d="M267.98,165.57 C271.39,183.23 275.4136,204.0886 278.8336,221.8186" fill="none" id="Sensorer-to-Tilstandsmaskin" style="stroke:#181818;stroke-width:1;"/><polygon fill="#181818" points="279.97,227.71,282.193,218.1153,279.023,222.8005,274.3378,219.6305,279.97,227.71" style="stroke:#181818;stroke-width:1;"/></g><?plantuml-src TL9BJiD03Dtd5Bv0Ru2G420X0M9HTbKNK-8cqvdOex4JgGVg7TZtOZYJLYKjP9Duydv-YGHFoMNNmIDtYGb9bxgF21c_r54JiQfMdpwA3RLqJWo_Xhl5uXvMpuEXEqUkmRokvgD13A1EThW8v58ga8UWlLFEPy2ry1zMez7RNkpL4aacQd6_uLR4Yg2SWBTm1bTWroc7_3xxs8ZcFiZETfvEbaPDKzWAgOPHRYvwPLbOJvZ1HIkivG5hzTGW8KZOdNrwJRqAR9nWLaZ70rZZTdBjaNtJwkXYsywO7hQSEt03nFt_h9koHudNCenvk8CDYdfBcg55RrqKnCl06MeaI-mYDCV3jK74xKb_zhMdrQa8jnnhKmrCcZb6i2ActTl1nu209LakMBjv2CTli_-xuyilKYJUsPulq1y0?></g></svg>