<?plantuml 1.2026.2?><svg xmlns="http://www.w3.org/2000/svg" xmlns:xlink="http://www.w3.org/1999/xlink" contentStyleType="text/css" data-diagram-type="CLASS" height="506px" preserveAspectRatio="none" style="width:901px;height:506px;background:#FFFFFF;" version="1.1" viewBox="0 0 901 506" width="901px" zoomAndPan="magnify"><defs/><g><!--class Event_Manager--><g class="entity" data-qualified-name="Event_Manager" data-source-line="4" id="ent0002"><rect fill="#F1F1F1" height="118.4375" rx="2.5" ry="2.5" style="stroke:#181818;stroke-width:0.5;" width="160.5996" x="320" y="381"/><ellipse cx="348.3915" cy="397" fill="#ADD1B2" rx="11" ry="11" style="stroke:#181818;stroke-width:1;"/><path d="M351.1571,392.875 Q351.3133,392.6563 351.5008,392.5469 Q351.6883,392.4375 351.9071,392.4375 Q352.2821,392.4375 352.5165,392.7031 Q352.7508,392.9531 352.7508,393.5625 L352.7508,395.0156 Q352.7508,395.625 352.5165,395.8906 Q352.2821,396.1563 351.9071,396.1563 Q351.5633,396.1563 351.3602,395.9531 Q351.1571,395.7656 351.0477,395.25 Q351.0008,394.8906 350.8133,394.7031 Q350.4852,394.3281 349.8758,394.1094 Q349.2665,393.8906 348.6415,393.8906 Q347.8758,393.8906 347.2352,394.2188 Q346.6102,394.5469 346.1102,395.2969 Q345.6258,396.0469 345.6258,397.0781 L345.6258,398.1719 Q345.6258,399.4063 346.5165,400.2344 Q347.4071,401.0469 349.0008,401.0469 Q349.9383,401.0469 350.5946,400.7969 Q350.9852,400.6406 351.4071,400.2031 Q351.6727,399.9375 351.8133,399.8594 Q351.9696,399.7813 352.1727,399.7813 Q352.5008,399.7813 352.7508,400.0469 Q353.0165,400.2969 353.0165,400.6406 Q353.0165,400.9844 352.6727,401.3906 Q352.1727,401.9688 351.3758,402.2969 Q350.2977,402.75 349.0008,402.75 Q347.4852,402.75 346.2821,402.125 Q345.2977,401.625 344.6102,400.5625 Q343.9227,399.4844 343.9227,398.2031 L343.9227,397.0469 Q343.9227,395.7188 344.5321,394.5781 Q345.1571,393.4219 346.2508,392.8125 Q347.3446,392.1875 348.579,392.1875 Q349.3133,392.1875 349.954,392.3594 Q350.6102,392.5156 351.1571,392.875 Z " fill="#000000"/><text fill="#000000" font-family="sans-serif" font-size="14" lengthAdjust="spacing" textLength="98.8408" x="365.3673" y="402.7285">Event_Manager</text><line style="stroke:#181818;stroke-width:0.5;" x1="321" x2="479.5996" y1="413" y2="413"/><text fill="#000000" font-family="sans-serif" font-size="14" lengthAdjust="spacing" textLength="98.4443" x="326" y="431.5332">+em_cue : Int[*]</text><text fill="#000000" font-family="sans-serif" font-size="14" lengthAdjust="spacing" textLength="121.0029" x="326" y="449.1426">+em_nextFloor : Int</text><text fill="#000000" font-family="sans-serif" font-size="14" lengthAdjust="spacing" textLength="138.1133" x="326" y="466.752">+em_currentFloor : Int</text><line style="stroke:#181818;stroke-width:0.5;" x1="321" x2="479.5996" y1="473.8281" y2="473.8281"/><text fill="#000000" font-family="sans-serif" font-size="14" lengthAdjust="spacing" textLength="148.5996" x="326" y="492.3613">-em_getNextFloor() : Int</text></g><!--class Tilstandsmaskin--><g class="entity" data-qualified-name="Tilstandsmaskin" data-source-line="11" id="ent0003"><rect fill="#F1F1F1" height="136.0469" rx="2.5" ry="2.5" style="stroke:#181818;stroke-width:0.5;" width="142.3203" x="329.5" y="185"/><ellipse cx="348.9798" cy="201" fill="#ADD1B2" rx="11" ry="11" style="stroke:#181818;stroke-width:1;"/><path d="M351.7454,196.875 Q351.9017,196.6563 352.0892,196.5469 Q352.2767,196.4375 352.4954,196.4375 Q352.8704,196.4375 353.1048,196.7031 Q353.3392,196.9531 353.3392,197.5625 L353.3392,199.0156 Q353.3392,199.625 353.1048,199.8906 Q352.8704,200.1563 352.4954,200.1563 Q352.1517,200.1563 351.9485,199.9531 Q351.7454,199.7656 351.636,199.25 Q351.5892,198.8906 351.4017,198.7031 Q351.0735,198.3281 350.4642,198.1094 Q349.8548,197.8906 349.2298,197.8906 Q348.4642,197.8906 347.8235,198.2188 Q347.1985,198.5469 346.6985,199.2969 Q346.2142,200.0469 346.2142,201.0781 L346.2142,202.1719 Q346.2142,203.4063 347.1048,204.2344 Q347.9954,205.0469 349.5892,205.0469 Q350.5267,205.0469 351.1829,204.7969 Q351.5735,204.6406 351.9954,204.2031 Q352.261,203.9375 352.4017,203.8594 Q352.5579,203.7813 352.761,203.7813 Q353.0892,203.7813 353.3392,204.0469 Q353.6048,204.2969 353.6048,204.6406 Q353.6048,204.9844 353.261,205.3906 Q352.761,205.9688 351.9642,206.2969 Q350.886,206.75 349.5892,206.75 Q348.0735,206.75 346.8704,206.125 Q345.886,205.625 345.1985,204.5625 Q344.511,203.4844 344.511,202.2031 L344.511,201.0469 Q344.511,199.7188 345.1204,198.5781 Q345.7454,197.4219 346.8392,196.8125 Q347.9329,196.1875 349.1673,196.1875 Q349.9017,196.1875 350.5423,196.3594 Q351.1985,196.5156 351.7454,196.875 Z " fill="#000000"/><text fill="#000000" font-family="sans-serif" font-size="14" lengthAdjust="spacing" textLength="100.3652" x="363.9753" y="206.7285">Tilstandsmaskin</text><line style="stroke:#181818;stroke-width:0.5;" x1="330.5" x2="470.8203" y1="217" y2="217"/><text fill="#000000" font-family="sans-serif" font-size="14" lengthAdjust="spacing" textLength="35.0137" x="335.5" y="235.5332">-state</text><line style="stroke:#181818;stroke-width:0.5;" x1="330.5" x2="470.8203" y1="242.6094" y2="242.6094"/><text fill="#000000" font-family="sans-serif" font-size="14" lengthAdjust="spacing" textLength="87.5342" x="335.5" y="261.1426">+sm_evStop()</text><text fill="#000000" font-family="sans-serif" font-size="14" lengthAdjust="spacing" textLength="130.3203" x="335.5" y="278.752">+sm_evObstruction()</text><text fill="#000000" font-family="sans-serif" font-size="14" lengthAdjust="spacing" textLength="119.417" x="335.5" y="296.3613">+sm_evNoOrders()</text><text fill="#000000" font-family="sans-serif" font-size="14" lengthAdjust="spacing" textLength="123.3271" x="335.5" y="313.9707">+sm_evDoorOpen()</text></g><!--class Aktuator--><g class="entity" data-qualified-name="Aktuator" data-source-line="19" id="ent0004"><rect fill="#F1F1F1" height="83.2188" rx="2.5" ry="2.5" style="stroke:#181818;stroke-width:0.5;" width="287.0439" x="7" y="211.5"/><ellipse cx="120.2031" cy="227.5" fill="#ADD1B2" rx="11" ry="11" style="stroke:#181818;stroke-width:1;"/><path d="M122.9688,223.375 Q123.125,223.1563 123.3125,223.0469 Q123.5,222.9375 123.7188,222.9375 Q124.0938,222.9375 124.3281,223.2031 Q124.5625,223.4531 124.5625,224.0625 L124.5625,225.5156 Q124.5625,226.125 124.3281,226.3906 Q124.0938,226.6563 123.7188,226.6563 Q123.375,226.6563 123.1719,226.4531 Q122.9688,226.2656 122.8594,225.75 Q122.8125,225.3906 122.625,225.2031 Q122.2969,224.8281 121.6875,224.6094 Q121.0781,224.3906 120.4531,224.3906 Q119.6875,224.3906 119.0469,224.7188 Q118.4219,225.0469 117.9219,225.7969 Q117.4375,226.5469 117.4375,227.5781 L117.4375,228.6719 Q117.4375,229.9063 118.3281,230.7344 Q119.2188,231.5469 120.8125,231.5469 Q121.75,231.5469 122.4063,231.2969 Q122.7969,231.1406 123.2188,230.7031 Q123.4844,230.4375 123.625,230.3594 Q123.7813,230.2813 123.9844,230.2813 Q124.3125,230.2813 124.5625,230.5469 Q124.8281,230.7969 124.8281,231.1406 Q124.8281,231.4844 124.4844,231.8906 Q123.9844,232.4688 123.1875,232.7969 Q122.1094,233.25 120.8125,233.25 Q119.2969,233.25 118.0938,232.625 Q117.1094,232.125 116.4219,231.0625 Q115.7344,229.9844 115.7344,228.7031 L115.7344,227.5469 Q115.7344,226.2188 116.3438,225.0781 Q116.9688,223.9219 118.0625,223.3125 Q119.1563,222.6875 120.3906,222.6875 Q121.125,222.6875 121.7656,222.8594 Q122.4219,223.0156 122.9688,223.375 Z " fill="#000000"/><text fill="#000000" font-family="sans-serif" font-size="14" lengthAdjust="spacing" textLength="52.1377" x="140.7031" y="233.2285">Aktuator</text><line style="stroke:#181818;stroke-width:0.5;" x1="8" x2="293.0439" y1="243.5" y2="243.5"/><text fill="#000000" font-family="sans-serif" font-size="14" lengthAdjust="spacing" textLength="161.458" x="13" y="262.0332">+MotorDirection : enum[3]</text><line style="stroke:#181818;stroke-width:0.5;" x1="8" x2="293.0439" y1="269.1094" y2="269.1094"/><text fill="#000000" font-family="sans-serif" font-size="14" lengthAdjust="spacing" textLength="275.0439" x="13" y="287.6426">+elevio_motorDirection(dirn: MotorDirection)</text></g><!--class Elevator--><g class="entity" data-qualified-name="Elevator" data-source-line="24" id="ent0005"><rect fill="#F1F1F1" height="100.8281" rx="2.5" ry="2.5" style="stroke:#181818;stroke-width:0.5;" width="104.5791" x="176" y="15.5"/><ellipse cx="200.5493" cy="31.5" fill="#ADD1B2" rx="11" ry="11" style="stroke:#181818;stroke-width:1;"/><path d="M203.3149,27.375 Q203.4712,27.1563 203.6587,27.0469 Q203.8462,26.9375 204.0649,26.9375 Q204.4399,26.9375 204.6743,27.2031 Q204.9087,27.4531 204.9087,28.0625 L204.9087,29.5156 Q204.9087,30.125 204.6743,30.3906 Q204.4399,30.6563 204.0649,30.6563 Q203.7212,30.6563 203.5181,30.4531 Q203.3149,30.2656 203.2056,29.75 Q203.1587,29.3906 202.9712,29.2031 Q202.6431,28.8281 202.0337,28.6094 Q201.4243,28.3906 200.7993,28.3906 Q200.0337,28.3906 199.3931,28.7188 Q198.7681,29.0469 198.2681,29.7969 Q197.7837,30.5469 197.7837,31.5781 L197.7837,32.6719 Q197.7837,33.9063 198.6743,34.7344 Q199.5649,35.5469 201.1587,35.5469 Q202.0962,35.5469 202.7524,35.2969 Q203.1431,35.1406 203.5649,34.7031 Q203.8306,34.4375 203.9712,34.3594 Q204.1274,34.2813 204.3306,34.2813 Q204.6587,34.2813 204.9087,34.5469 Q205.1743,34.7969 205.1743,35.1406 Q205.1743,35.4844 204.8306,35.8906 Q204.3306,36.4688 203.5337,36.7969 Q202.4556,37.25 201.1587,37.25 Q199.6431,37.25 198.4399,36.625 Q197.4556,36.125 196.7681,35.0625 Q196.0806,33.9844 196.0806,32.7031 L196.0806,31.5469 Q196.0806,30.2188 196.6899,29.0781 Q197.3149,27.9219 198.4087,27.3125 Q199.5024,26.6875 200.7368,26.6875 Q201.4712,26.6875 202.1118,26.8594 Q202.7681,27.0156 203.3149,27.375 Z " fill="#000000"/><text fill="#000000" font-family="sans-serif" font-size="14" lengthAdjust="spacing" textLength="51.3584" x="216.6714" y="37.2285">Elevator</text><line style="stroke:#181818;stroke-width:0.5;" x1="177" x2="279.5791" y1="47.5" y2="47.5"/><line style="stroke:#181818;stroke-width:0.5;" x1="177" x2="279.5791" y1="55.5" y2="55.5"/><text fill="#000000" font-family="sans-serif" font-size="14" lengthAdjust="spacing" textLength="44.3311" x="182" y="74.0332">-main()</text><text fill="#000000" font-family="sans-serif" font-size="14" lengthAdjust="spacing" textLength="76.248" x="182" y="91.6426">-elevio_init()</text><text fill="#000000" font-family="sans-serif" font-size="14" lengthAdjust="spacing" textLength="92.5791" x="182" y="109.252">-elev_startUp()</text></g><!--class Sensorer--><g class="entity" data-qualified-name="Sensorer" data-source-line="30" id="ent0006"><rect fill="#F1F1F1" height="100.8281" rx="2.5" ry="2.5" style="stroke:#181818;stroke-width:0.5;" width="168.0234" x="316.5" y="15.5"/><ellipse cx="367.8584" cy="31.5" fill="#ADD1B2" rx="11" ry="11" style="stroke:#181818;stroke-width:1;"/><path d="M370.624,27.375 Q370.7803,27.1563 370.9678,27.0469 Q371.1553,26.9375 371.374,26.9375 Q371.749,26.9375 371.9834,27.2031 Q372.2178,27.4531 372.2178,28.0625 L372.2178,29.5156 Q372.2178,30.125 371.9834,30.3906 Q371.749,30.6563 371.374,30.6563 Q371.0303,30.6563 370.8271,30.4531 Q370.624,30.2656 370.5146,29.75 Q370.4678,29.3906 370.2803,29.2031 Q369.9521,28.8281 369.3428,28.6094 Q368.7334,28.3906 368.1084,28.3906 Q367.3428,28.3906 366.7021,28.7188 Q366.0771,29.0469 365.5771,29.7969 Q365.0928,30.5469 365.0928,31.5781 L365.0928,32.6719 Q365.0928,33.9063 365.9834,34.7344 Q366.874,35.5469 368.4678,35.5469 Q369.4053,35.5469 370.0615,35.2969 Q370.4521,35.1406 370.874,34.7031 Q371.1396,34.4375 371.2803,34.3594 Q371.4365,34.2813 371.6396,34.2813 Q371.9678,34.2813 372.2178,34.5469 Q372.4834,34.7969 372.4834,35.1406 Q372.4834,35.4844 372.1396,35.8906 Q371.6396,36.4688 370.8428,36.7969 Q369.7646,37.25 368.4678,37.25 Q366.9521,37.25 365.749,36.625 Q364.7646,36.125 364.0771,35.0625 Q363.3896,33.9844 363.3896,32.7031 L363.3896,31.5469 Q363.3896,30.2188 363.999,29.0781 Q364.624,27.9219 365.7178,27.3125 Q366.8115,26.6875 368.0459,26.6875 Q368.7803,26.6875 369.4209,26.8594 Q370.0771,27.0156 370.624,27.375 Z " fill="#000000"/><text fill="#000000" font-family="sans-serif" font-size="14" lengthAdjust="spacing" textLength="56.8066" x="388.3584" y="37.2285">Sensorer</text><line style="stroke:#181818;stroke-width:0.5;" x1="317.5" x2="483.5234" y1="47.5" y2="47.5"/><line style="stroke:#181818;stroke-width:0.5;" x1="317.5" x2="483.5234" y1="55.5" y2="55.5"/><text fill="#000000" font-family="sans-serif" font-size="14" lengthAdjust="spacing" textLength="156.0234" x="322.5" y="74.0332">+elevio_floorSensor(): int</text><text fill="#000000" font-family="sans-serif" font-size="14" lengthAdjust="spacing" textLength="151.3682" x="322.5" y="91.6426">+elevio_stopButton(): int</text><text fill="#000000" font-family="sans-serif" font-size="14" lengthAdjust="spacing" textLength="152.9131" x="322.5" y="109.252">+elevio_obstruction(): int</text></g><!--class Timer--><g class="entity" data-qualified-name="Timer" data-source-line="36" id="ent0007"><rect fill="#F1F1F1" height="118.4375" rx="2.5" ry="2.5" style="stroke:#181818;stroke-width:0.5;" width="132.1826" x="519.5" y="7"/><ellipse cx="563.4846" cy="23" fill="#ADD1B2" rx="11" ry="11" style="stroke:#181818;stroke-width:1;"/><path d="M566.2502,18.875 Q566.4064,18.6563 566.5939,18.5469 Q566.7814,18.4375 567.0002,18.4375 Q567.3752,18.4375 567.6096,18.7031 Q567.8439,18.9531 567.8439,19.5625 L567.8439,21.0156 Q567.8439,21.625 567.6096,21.8906 Q567.3752,22.1563 567.0002,22.1563 Q566.6564,22.1563 566.4533,21.9531 Q566.2502,21.7656 566.1408,21.25 Q566.0939,20.8906 565.9064,20.7031 Q565.5783,20.3281 564.9689,20.1094 Q564.3596,19.8906 563.7346,19.8906 Q562.9689,19.8906 562.3283,20.2188 Q561.7033,20.5469 561.2033,21.2969 Q560.7189,22.0469 560.7189,23.0781 L560.7189,24.1719 Q560.7189,25.4063 561.6096,26.2344 Q562.5002,27.0469 564.0939,27.0469 Q565.0314,27.0469 565.6877,26.7969 Q566.0783,26.6406 566.5002,26.2031 Q566.7658,25.9375 566.9064,25.8594 Q567.0627,25.7813 567.2658,25.7813 Q567.5939,25.7813 567.8439,26.0469 Q568.1096,26.2969 568.1096,26.6406 Q568.1096,26.9844 567.7658,27.3906 Q567.2658,27.9688 566.4689,28.2969 Q565.3908,28.75 564.0939,28.75 Q562.5783,28.75 561.3752,28.125 Q560.3908,27.625 559.7033,26.5625 Q559.0158,25.4844 559.0158,24.2031 L559.0158,23.0469 Q559.0158,21.7188 559.6252,20.5781 Q560.2502,19.4219 561.3439,18.8125 Q562.4377,18.1875 563.6721,18.1875 Q564.4064,18.1875 565.0471,18.3594 Q565.7033,18.5156 566.2502,18.875 Z " fill="#000000"/><text fill="#000000" font-family="sans-serif" font-size="14" lengthAdjust="spacing" textLength="35.7725" x="583.9256" y="28.7285">Timer</text><line style="stroke:#181818;stroke-width:0.5;" x1="520.5" x2="650.6826" y1="39" y2="39"/><text fill="#000000" font-family="sans-serif" font-size="14" lengthAdjust="spacing" textLength="92.5723" x="525.5" y="57.5332">-timer_time: int</text><line style="stroke:#181818;stroke-width:0.5;" x1="520.5" x2="650.6826" y1="64.6094" y2="64.6094"/><text fill="#000000" font-family="sans-serif" font-size="14" lengthAdjust="spacing" textLength="83.624" x="525.5" y="83.1426">+timer_start()</text><text fill="#000000" font-family="sans-serif" font-size="14" lengthAdjust="spacing" textLength="120.1826" x="525.5" y="100.752">+timer_isTimeOut()</text><text fill="#000000" font-family="sans-serif" font-size="14" lengthAdjust="spacing" textLength="87.5205" x="525.5" y="118.3613">+timer_reset()</text></g><!--class Lys--><g class="entity" data-qualified-name="Lys" data-source-line="43" id="ent0008"><rect fill="#F1F1F1" height="136.0469" rx="2.5" ry="2.5" style="stroke:#181818;stroke-width:0.5;" width="387.5049" x="506.5" y="185"/><ellipse cx="685.1094" cy="201" fill="#ADD1B2" rx="11" ry="11" style="stroke:#181818;stroke-width:1;"/><path d="M687.875,196.875 Q688.0313,196.6563 688.2188,196.5469 Q688.4063,196.4375 688.625,196.4375 Q689,196.4375 689.2344,196.7031 Q689.4688,196.9531 689.4688,197.5625 L689.4688,199.0156 Q689.4688,199.625 689.2344,199.8906 Q689,200.1563 688.625,200.1563 Q688.2813,200.1563 688.0781,199.9531 Q687.875,199.7656 687.7656,199.25 Q687.7188,198.8906 687.5313,198.7031 Q687.2031,198.3281 686.5938,198.1094 Q685.9844,197.8906 685.3594,197.8906 Q684.5938,197.8906 683.9531,198.2188 Q683.3281,198.5469 682.8281,199.2969 Q682.3438,200.0469 682.3438,201.0781 L682.3438,202.1719 Q682.3438,203.4063 683.2344,204.2344 Q684.125,205.0469 685.7188,205.0469 Q686.6563,205.0469 687.3125,204.7969 Q687.7031,204.6406 688.125,204.2031 Q688.3906,203.9375 688.5313,203.8594 Q688.6875,203.7813 688.8906,203.7813 Q689.2188,203.7813 689.4688,204.0469 Q689.7344,204.2969 689.7344,204.6406 Q689.7344,204.9844 689.3906,205.3906 Q688.8906,205.9688 688.0938,206.2969 Q687.0156,206.75 685.7188,206.75 Q684.2031,206.75 683,206.125 Q682.0156,205.625 681.3281,204.5625 Q680.6406,203.4844 680.6406,202.2031 L680.6406,201.0469 Q680.6406,199.7188 681.25,198.5781 Q681.875,197.4219 682.9688,196.8125 Q684.0625,196.1875 685.2969,196.1875 Q686.0313,196.1875 686.6719,196.3594 Q687.3281,196.5156 687.875,196.875 Z " fill="#000000"/><text fill="#000000" font-family="sans-serif" font-size="14" lengthAdjust="spacing" textLength="21.7861" x="705.6094" y="206.7285">Lys</text><line style="stroke:#181818;stroke-width:0.5;" x1="507.5" x2="893.0049" y1="217" y2="217"/><text fill="#000000" font-family="sans-serif" font-size="14" lengthAdjust="spacing" textLength="133.834" x="512.5" y="235.5332">+N_FLOORS : int = 4</text><line style="stroke:#181818;stroke-width:0.5;" x1="507.5" x2="893.0049" y1="242.6094" y2="242.6094"/><text fill="#000000" font-family="sans-serif" font-size="14" lengthAdjust="spacing" textLength="375.5049" x="512.5" y="261.1426">+elevio_buttonLamp(floor: int, button: ButtonType, value: int)</text><text fill="#000000" font-family="sans-serif" font-size="14" lengthAdjust="spacing" textLength="192.5957" x="512.5" y="278.752">+elevio_floorIndicator(floor: int)</text><text fill="#000000" font-family="sans-serif" font-size="14" lengthAdjust="spacing" textLength="215.1885" x="512.5" y="296.3613">+elevio_doorOpenLamp(value: int)</text><text fill="#000000" font-family="sans-serif" font-size="14" lengthAdjust="spacing" textLength="179.3818" x="512.5" y="313.9707">+elveio_stopLamp(value: int)</text></g><!--class Etasje_Knapp--><g class="entity" data-qualified-name="Etasje_Knapp" data-source-line="51" id="ent0009"><rect fill="#F1F1F1" height="100.8281" rx="2.5" ry="2.5" style="stroke:#181818;stroke-width:0.5;" width="337.6846" x="523.5" y="389.5"/><ellipse cx="644.5029" cy="405.5" fill="#ADD1B2" rx="11" ry="11" style="stroke:#181818;stroke-width:1;"/><path d="M647.2686,401.375 Q647.4248,401.1563 647.6123,401.0469 Q647.7998,400.9375 648.0186,400.9375 Q648.3936,400.9375 648.6279,401.2031 Q648.8623,401.4531 648.8623,402.0625 L648.8623,403.5156 Q648.8623,404.125 648.6279,404.3906 Q648.3936,404.6563 648.0186,404.6563 Q647.6748,404.6563 647.4717,404.4531 Q647.2686,404.2656 647.1592,403.75 Q647.1123,403.3906 646.9248,403.2031 Q646.5967,402.8281 645.9873,402.6094 Q645.3779,402.3906 644.7529,402.3906 Q643.9873,402.3906 643.3467,402.7188 Q642.7217,403.0469 642.2217,403.7969 Q641.7373,404.5469 641.7373,405.5781 L641.7373,406.6719 Q641.7373,407.9063 642.6279,408.7344 Q643.5186,409.5469 645.1123,409.5469 Q646.0498,409.5469 646.7061,409.2969 Q647.0967,409.1406 647.5186,408.7031 Q647.7842,408.4375 647.9248,408.3594 Q648.0811,408.2813 648.2842,408.2813 Q648.6123,408.2813 648.8623,408.5469 Q649.1279,408.7969 649.1279,409.1406 Q649.1279,409.4844 648.7842,409.8906 Q648.2842,410.4688 647.4873,410.7969 Q646.4092,411.25 645.1123,411.25 Q643.5967,411.25 642.3936,410.625 Q641.4092,410.125 640.7217,409.0625 Q640.0342,407.9844 640.0342,406.7031 L640.0342,405.5469 Q640.0342,404.2188 640.6436,403.0781 Q641.2686,401.9219 642.3623,401.3125 Q643.4561,400.6875 644.6904,400.6875 Q645.4248,400.6875 646.0654,400.8594 Q646.7217,401.0156 647.2686,401.375 Z " fill="#000000"/><text fill="#000000" font-family="sans-serif" font-size="14" lengthAdjust="spacing" textLength="87.1787" x="665.0029" y="411.2285">Etasje_Knapp</text><line style="stroke:#181818;stroke-width:0.5;" x1="524.5" x2="860.1846" y1="421.5" y2="421.5"/><text fill="#000000" font-family="sans-serif" font-size="14" lengthAdjust="spacing" textLength="142.0303" x="529.5" y="440.0332">+ButtonType : enum[3]</text><text fill="#000000" font-family="sans-serif" font-size="14" lengthAdjust="spacing" textLength="143.1582" x="529.5" y="457.6426">+N_BUTTONS : int = 3</text><line style="stroke:#181818;stroke-width:0.5;" x1="524.5" x2="860.1846" y1="464.7188" y2="464.7188"/><text fill="#000000" font-family="sans-serif" font-size="14" lengthAdjust="spacing" textLength="325.6846" x="529.5" y="483.252">+elevio_callButton(floor: int, button: ButtonType) : int</text></g><!--reverse link Tilstandsmaskin to Event_Manager--><g class="link" data-entity-1="ent0003" data-entity-2="ent0002" data-link-type="dependency" data-source-line="57" id="lnk10"><path codeLine="57" d="M400.5,327.05 C400.5,346.59 400.5,361.78 400.5,380.74" fill="none" id="Tilstandsmaskin-backto-Event_Manager" style="stroke:#181818;stroke-width:1;"/><polygon fill="#181818" points="400.5,321.05,396.5,330.05,400.5,326.05,404.5,330.05,400.5,321.05" style="stroke:#181818;stroke-width:1;"/></g><!--link Aktuator to Tilstandsmaskin--><g class="link" data-entity-1="ent0004" data-entity-2="ent0003" data-link-type="dependency" data-source-line="59" id="lnk11"><path codeLine="59" d="M294.05,253 C305.84,253 311.62,253 323.4,253" fill="none" id="Aktuator-to-Tilstandsmaskin" style="stroke:#181818;stroke-width:1;"/><polygon fill="#181818" points="329.4,253,320.4,249,324.4,253,320.4,257,329.4,253" style="stroke:#181818;stroke-width:1;"/></g><!--link Aktuator to Event_Manager--><g class="link" data-entity-1="ent0004" data-entity-2="ent0002" data-link-type="dependency" data-source-line="60" id="lnk12"><path codeLine="60" d="M205.36,294.6 C239.57,319.91 279.3167,349.3312 317.2267,377.3812" fill="none" id="Aktuator-to-Event_Manager" style="stroke:#181818;stroke-width:1;"/><polygon fill="#181818" points="322.05,380.95,317.1943,372.3813,318.0306,377.976,312.4359,378.8123,322.05,380.95" style="stroke:#181818;stroke-width:1;"/></g><!--reverse link Tilstandsmaskin to Lys--><g class="link" data-entity-1="ent0003" data-entity-2="ent0008" data-link-type="dependency" data-source-line="62" id="lnk13"><path codeLine="62" d="M477.69,253 C489.16,253 494.63,253 506.1,253" fill="none" id="Tilstandsmaskin-backto-Lys" style="stroke:#181818;stroke-width:1;"/><polygon fill="#181818" points="471.69,253,480.69,257,476.69,253,480.69,249,471.69,253" style="stroke:#181818;stroke-width:1;"/></g><!--reverse link Event_Manager to Etasje_Knapp--><g class="link" data-entity-1="ent0002" data-entity-2="ent0009" data-link-type="dependency" data-source-line="64" id="lnk14"><path codeLine="64" d="M487.2,440 C501.23,440 509.26,440 523.29,440" fill="none" id="Event_Manager-backto-Etasje_Knapp" style="stroke:#181818;stroke-width:1;"/><polygon fill="#181818" points="481.2,440,490.2,444,486.2,440,490.2,436,481.2,440" style="stroke:#181818;stroke-width:1;"/></g><!--reverse link Lys to Etasje_Knapp--><g class="link" data-entity-1="ent0008" data-entity-2="ent0009" data-link-type="dependency" data-source-line="65" id="lnk15"><path codeLine="65" d="M697.342,327.0445 C696.372,349.5845 695.56,368.32 694.65,389.29" fill="none" id="Lys-backto-Etasje_Knapp" style="stroke:#181818;stroke-width:1;"/><polygon fill="#181818" points="697.6,321.05,693.2167,329.8697,697.385,326.0454,701.2093,330.2137,697.6,321.05" style="stroke:#181818;stroke-width:1;"/></g><!--link Timer to Tilstandsmaskin--><g class="link" data-entity-1="ent0007" data-entity-2="ent0003" data-link-type="dependency" data-source-line="67" id="lnk16"><path codeLine="67" d="M527.47,125.03 C508.5,144 491.5226,160.9774 471.9326,180.5674" fill="none" id="Timer-to-Tilstandsmaskin" style="stroke:#181818;stroke-width:1;"/><polygon fill="#181818" points="467.69,184.81,476.8824,181.2745,471.2255,181.2745,471.2255,175.6176,467.69,184.81" style="stroke:#181818;stroke-width:1;"/></g><!--link Sensorer to Tilstandsmaskin--><g class="link" data-entity-1="ent0006" data-entity-2="ent0003" data-link-type="dependency" data-source-line="68" id="lnk17"><path codeLine="68" d="M400.5,116.58 C400.5,137.55 400.5,156.32 400.5,178.89" fill="none" id="Sensorer-to-Tilstandsmaskin" style="stroke:#181818;stroke-width:1;"/><polygon fill="#181818" points="400.5,184.89,404.5,175.89,400.5,179.89,396.5,175.89,400.5,184.89" style="stroke:#181818;stroke-width:1;"/></g><!--link Elevator to Tilstandsmaskin--><g class="link" data-entity-1="ent0005" data-entity-2="ent0003" data-link-type="dependency" data-source-line="69" id="lnk18"><path codeLine="69" d="M274.59,116.58 C294.1,137.55 313.0339,157.9264 334.0239,180.4964" fill="none" id="Elevator-to-Tilstandsmaskin" style="stroke:#181818;stroke-width:1;"/><polygon fill="#181818" points="338.11,184.89,334.91,175.5755,334.7049,181.2286,329.0518,181.0236,338.11,184.89" style="stroke:#181818;stroke-width:1;"/></g><?plantuml-src VLDDQzmm4BtxL-Xejp4KqjFI5f8cWQKR6xgRKoX2Qq-36bioqjWq3VtlrOTbouxf7XRytdoyUQFHprnqJB6MV6sOrbU8YfzxX7qbnP7_0V8XIIhBaDi11D9x9jWJAFAQ4FDxJw2bLGzaH_O27z_zc541l_6kaL9vBWvNobHQSxdbdW2Ba9Tc8_itA3ZnHYCJjMwPDh973Jan8CBOGBSKXYFABirYf3nhL7s5N8ebKSXIrQ3q4hqn_SiEREpK_UePUuPo7lrUcgyRhi2LDM91zEtZvUH10mENj5r4fJLNOhTAZPhScYJR98pMCXu4vw4Y5nmN63K6A7peOhL745egKAzBDJ-jivvBintXys8yhurprpsYjMc3bh6Dde-sqyAa6-q7jVzn5OywjPFV7kFQffVz6bUW0UEv3YywZ5JGkqDPVZyIru9y9X-NOizkZWDhkzIDxS8kY8Ttn8zvUkdWWWoiwRtIRCEllQXvPRSIrLd5rUE3STssgWqmklicOjuzClqBw3V1kYxCE8jyyxuAUlrmEfN5FF_bKbF5ccRSvV_dpyYqolM9VShprU4doNG8-PVrIKQS8HU9MxNjDfDaMT-WiH692V4gOZ1nZyqrMIi83t-J3EUrIVu3?></g></svg>