<?plantuml 1.2026.2?><svg xmlns="http://www.w3.org/2000/svg" xmlns:xlink="http://www.w3.org/1999/xlink" contentStyleType="text/css" data-diagram-type="STATE" height="862px" preserveAspectRatio="none" style="width:943px;height:862px;background:#FFFFFF;" version="1.1" viewBox="0 0 943 862" width="943px" zoomAndPan="magnify"><defs/><g><g class="entity" data-qualified-name="state_startUp" id="ent0002"><rect fill="#F1F1F1" height="67.7969" rx="12.5" ry="12.5" style="stroke:#181818;stroke-width:0.5;" width="284.4629" x="389" y="104"/><line style="stroke:#181818;stroke-width:0.5;" x1="389" x2="673.4629" y1="131.6094" y2="131.6094"/><text fill="#000000" font-family="sans-serif" font-size="14" lengthAdjust="spacing" textLength="83.2617" x="489.6006" y="123.5332">state_startUp</text><text fill="#000000" font-family="sans-serif" font-size="12" lengthAdjust="spacing" textLength="158.0625" x="394" y="149.0664">do / elevio_motorDirection(-1)</text><text fill="#000000" font-family="sans-serif" font-size="12" lengthAdjust="spacing" textLength="264.4629" x="394" y="164.1602">elevio_stopButton() = 1 / elevio_motorDirection(0)</text></g><g class="entity" data-qualified-name="state_stationary" id="ent0003"><rect fill="#F1F1F1" height="67.7969" rx="12.5" ry="12.5" style="stroke:#181818;stroke-width:0.5;" width="177.4004" x="442.5" y="250"/><line style="stroke:#181818;stroke-width:0.5;" x1="442.5" x2="619.9004" y1="277.6094" y2="277.6094"/><text fill="#000000" font-family="sans-serif" font-size="14" lengthAdjust="spacing" textLength="98.834" x="481.7832" y="269.5332">state_stationary</text><text fill="#000000" font-family="sans-serif" font-size="12" lengthAdjust="spacing" textLength="154.0664" x="447.5" y="295.0664">do / elevio_motorDirection(0)</text><text fill="#000000" font-family="sans-serif" font-size="12" lengthAdjust="spacing" textLength="123.3809" x="447.5" y="310.1602">do / em_getNextFloor()</text></g><path d="M19.5,429 L696.0723,429 A12.5,12.5 0 0 1 708.5723,441.5 L708.5723,456.6094 L7,456.6094 L7,441.5 A12.5,12.5 0 0 1 19.5,429" fill="#F1F1F1"/><rect fill="none" height="252.3125" rx="12.5" ry="12.5" style="stroke:#181818;stroke-width:0.5;" width="701.5723" x="7" y="429"/><line style="stroke:#181818;stroke-width:0.5;" x1="7" x2="708.5723" y1="456.6094" y2="456.6094"/><text fill="#000000" font-family="sans-serif" font-size="14" lengthAdjust="spacing" textLength="72.3721" x="321.6001" y="448.5332">state_move</text><g class="entity" data-qualified-name="state_move.state_readyToMove" id="ent0005"><polygon fill="#F1F1F1" points="226,524.6094,238,536.6094,226,548.6094,214,536.6094,226,524.6094" style="stroke:#181818;stroke-width:0.5;"/></g><g class="entity" data-qualified-name="state_move.state_moveUp" id="ent0006"><rect fill="#F1F1F1" height="52.7031" rx="12.5" ry="12.5" style="stroke:#181818;stroke-width:0.5;" width="188.0703" x="19" y="618.6094"/><line style="stroke:#181818;stroke-width:0.5;" x1="19" x2="207.0703" y1="646.2188" y2="646.2188"/><text fill="#000000" font-family="sans-serif" font-size="14" lengthAdjust="spacing" textLength="90.2686" x="67.9009" y="638.1426">state_moveUp</text><text fill="#000000" font-family="sans-serif" font-size="12" lengthAdjust="spacing" textLength="168.0703" x="24" y="663.6758">enter / elevio_motorDirection(1)</text></g><g class="entity" data-qualified-name="state_move.state_moveDown" id="ent0007"><rect fill="#F1F1F1" height="52.7031" rx="12.5" ry="12.5" style="stroke:#181818;stroke-width:0.5;" width="192.0664" x="243" y="618.6094"/><line style="stroke:#181818;stroke-width:0.5;" x1="243" x2="435.0664" y1="646.2188" y2="646.2188"/><text fill="#000000" font-family="sans-serif" font-size="14" lengthAdjust="spacing" textLength="108.165" x="284.9507" y="638.1426">state_moveDown</text><text fill="#000000" font-family="sans-serif" font-size="12" lengthAdjust="spacing" textLength="172.0664" x="248" y="663.6758">enter / elevio_motorDirection(-1)</text></g><g class="start_entity" data-qualified-name="state_move..start.state_move" data-source-line="16" id="ent0007"><ellipse cx="226" cy="477.6094" fill="#222222" rx="10" ry="10" style="stroke:#222222;stroke-width:1;"/></g><!--link *start*state_move to state_readyToMove--><g class="link" data-entity-1="ent0007" data-entity-2="ent0005" data-link-type="dependency" data-source-line="16" id="lnk8"><path d="M226,487.7694 C226,497.7094 226,507.6094 226,518.3194" fill="none" id="*start*state_move-to-state_readyToMove" style="stroke:#181818;stroke-width:1;"/><polygon fill="#181818" points="226,524.3194,230,515.3194,226,519.3194,222,515.3194,226,524.3194" style="stroke:#181818;stroke-width:1;"/></g><!--link state_readyToMove to state_moveUp--><g class="link" data-entity-1="ent0005" data-entity-2="ent0006" data-link-type="dependency" data-source-line="17" id="lnk9"><path d="M215.95,538.6794 C190.88,541.5594 126.71,550.4094 114,566.6094 C102.71,581.0094 102.0983,596.0687 104.9783,612.5687" fill="none" id="state_readyToMove-to-state_moveUp" style="stroke:#181818;stroke-width:1;"/><polygon fill="#181818" points="106.01,618.4794,108.4029,608.9256,105.1503,613.5538,100.5221,610.3012,106.01,618.4794" style="stroke:#181818;stroke-width:1;"/><text fill="#000000" font-family="sans-serif" font-size="13" lengthAdjust="spacing" textLength="198.3198" x="115" y="581.1045">em_nextFloor() &gt; em_currentFloor</text><text fill="#000000" font-family="sans-serif" font-size="13" lengthAdjust="spacing" textLength="167.248" x="134.1477" y="597.4561">[sm_evObstruction() = False]</text></g><!--link state_readyToMove to state_moveDown--><g class="link" data-entity-1="ent0005" data-entity-2="ent0007" data-link-type="dependency" data-source-line="18" id="lnk10"><path d="M236.96,537.8994 C255.99,539.0194 295.2,544.0994 317,566.6094 C330.33,580.3694 334.9405,595.6464 337.0505,612.4064" fill="none" id="state_readyToMove-to-state_moveDown" style="stroke:#181818;stroke-width:1;"/><polygon fill="#181818" points="337.8,618.3594,340.6445,608.9302,337.1755,613.3985,332.7071,609.9295,337.8,618.3594" style="stroke:#181818;stroke-width:1;"/><text fill="#000000" font-family="sans-serif" font-size="13" lengthAdjust="spacing" textLength="198.3198" x="334" y="581.1045">em_nextFloor() &lt; em_currentFloor</text><text fill="#000000" font-family="sans-serif" font-size="13" lengthAdjust="spacing" textLength="167.248" x="353.1477" y="597.4561">[sm_evObstruction() = False]</text></g><line style="stroke:#181818;stroke-width:1.5;stroke-dasharray:8,10;" x1="530.9316" x2="530.9316" y1="461.6094" y2="684.3125"/><g class="entity" data-qualified-name="state_move.CONC2.state_updateNextFloor" id="ent0009"><rect fill="#F1F1F1" height="52.7031" rx="12.5" ry="12.5" style="stroke:#181818;stroke-width:0.5;" width="161.6406" x="537.9316" y="523.6094"/><line style="stroke:#181818;stroke-width:0.5;" x1="537.9316" x2="699.5723" y1="551.2188" y2="551.2188"/><text fill="#000000" font-family="sans-serif" font-size="14" lengthAdjust="spacing" textLength="141.6406" x="547.9316" y="543.1426">state_updateNextFloor</text><text fill="#000000" font-family="sans-serif" font-size="12" lengthAdjust="spacing" textLength="123.3809" x="542.9316" y="568.6758">do / em_getNextFloor()</text></g><g class="start_entity" data-qualified-name="state_move.CONC2..start.CONC2" data-source-line="24" id="ent0011"><ellipse cx="618.9316" cy="477.6094" fill="#222222" rx="10" ry="10" style="stroke:#222222;stroke-width:1;"/></g><!--link *start*CONC2 to state_updateNextFloor--><g class="link" data-entity-1="ent0011" data-entity-2="ent0009" data-link-type="dependency" data-source-line="24" id="lnk12"><path d="M618.9316,487.8294 C618.9316,496.8594 618.9316,505.0394 618.9316,517.4894" fill="none" id="*start*CONC2-to-state_updateNextFloor" style="stroke:#181818;stroke-width:1;"/><polygon fill="#181818" points="618.9316,523.4894,622.9316,514.4894,618.9316,518.4894,614.9316,514.4894,618.9316,523.4894" style="stroke:#181818;stroke-width:1;"/></g><g class="entity" data-qualified-name="state_openDoor" id="ent0010"><rect fill="#F1F1F1" height="97.9844" rx="12.5" ry="12.5" style="stroke:#181818;stroke-width:0.5;" width="203.3809" x="466.5" y="759"/><line style="stroke:#181818;stroke-width:0.5;" x1="466.5" x2="669.8809" y1="786.6094" y2="786.6094"/><text fill="#000000" font-family="sans-serif" font-size="14" lengthAdjust="spacing" textLength="99.627" x="518.377" y="778.5332">state_openDoor</text><text fill="#000000" font-family="sans-serif" font-size="12" lengthAdjust="spacing" textLength="108.6973" x="471.5" y="804.0664">enter / timer_start(3)</text><text fill="#000000" font-family="sans-serif" font-size="12" lengthAdjust="spacing" textLength="154.0664" x="471.5" y="819.1602">do / elevio_motorDirection(0)</text><text fill="#000000" font-family="sans-serif" font-size="12" lengthAdjust="spacing" textLength="146.0332" x="471.5" y="834.2539">sm_evStop() / timer_reset()</text><text fill="#000000" font-family="sans-serif" font-size="12" lengthAdjust="spacing" textLength="183.3809" x="471.5" y="849.3477">em_evObstruction() / timer_reset()</text></g><g class="start_entity" data-qualified-name=".start." data-source-line="2" id="ent0002"><ellipse cx="531" cy="16" fill="#222222" rx="10" ry="10" style="stroke:#222222;stroke-width:1;"/></g><!--link *start* to state_startUp--><g class="link" data-entity-1="ent0002" data-entity-2="ent0002" data-link-type="dependency" data-source-line="2" id="lnk3"><path d="M531,26.02 C531,42.32 531,71.43 531,97.82" fill="none" id="*start*-to-state_startUp" style="stroke:#181818;stroke-width:1;"/><polygon fill="#181818" points="531,103.82,535,94.82,531,98.82,527,94.82,531,103.82" style="stroke:#181818;stroke-width:1;"/><text fill="#000000" font-family="sans-serif" font-size="13" lengthAdjust="spacing" textLength="158.9453" x="532" y="70.4951">elev_startUp() / elevio_init()</text></g><!--link state_startUp to state_stationary--><g class="link" data-entity-1="ent0002" data-entity-2="ent0003" data-link-type="dependency" data-source-line="6" id="lnk4"><path d="M531,172.04 C531,195.29 531,220.29 531,243.62" fill="none" id="state_startUp-to-state_stationary" style="stroke:#181818;stroke-width:1;"/><polygon fill="#181818" points="531,249.62,535,240.62,531,244.62,527,240.62,531,249.62" style="stroke:#181818;stroke-width:1;"/><text fill="#000000" font-family="sans-serif" font-size="13" lengthAdjust="spacing" textLength="141.9907" x="532" y="216.4951">elevio_floorSensor() != 0</text></g><!--link state_stationary to state_stationary--><g class="link" data-entity-1="ent0003" data-entity-2="ent0003" data-link-type="dependency" data-source-line="8" id="lnk5"><path d="M619.53,270.81 C639.71,271.98 654.5,276.37 654.5,284 C654.5,291.63 645.6999,295.6727 625.5199,296.8427" fill="none" id="state_stationary-to-state_stationary" style="stroke:#181818;stroke-width:1;"/><polygon fill="#181818" points="619.53,297.19,628.7464,300.6624,624.5216,296.9006,628.2834,292.6758,619.53,297.19" style="stroke:#181818;stroke-width:1;"/><text fill="#000000" font-family="sans-serif" font-size="13" lengthAdjust="spacing" textLength="102.959" x="660.5" y="289.4951">em_nextFloor()=0</text></g><!--link state_stationary to state_move--><g class="link" data-entity-1="ent0003" data-entity-2="ent0004" data-link-type="dependency" data-source-line="12" id="lnk6"><path d="M442.32,295.21 C409.34,303.8 375.09,319.47 355,348 C338.53,371.4 332.7028,394.2903 332.4028,422.9503" fill="none" id="state_stationary-to-state_move" style="stroke:#181818;stroke-width:1;"/><polygon fill="#181818" points="332.34,428.95,336.434,419.9924,332.3923,423.9503,328.4344,419.9086,332.34,428.95" style="stroke:#181818;stroke-width:1;"/><text fill="#000000" font-family="sans-serif" font-size="13" lengthAdjust="spacing" textLength="113.7944" x="362.8618" y="362.4951">em_nextFloor() != 0</text><text fill="#000000" font-family="sans-serif" font-size="13" lengthAdjust="spacing" textLength="121.0181" x="359.25" y="378.8467">[ != em_currentFloor]</text><text fill="#000000" font-family="sans-serif" font-size="13" lengthAdjust="spacing" textLength="127.5181" x="359.6118" y="395.1982">[sm_evStop() = False]</text></g><!--link state_move to state_stationary--><g class="link" data-entity-1="ent0004" data-entity-2="ent0003" data-link-type="dependency" data-source-line="36" id="lnk15"><path d="M472.91,428.78 C479.79,419 486.24,409.03 492,399 C506.63,373.51 515.3925,347.4543 521.7225,323.9043" fill="none" id="state_move-to-state_stationary" style="stroke:#181818;stroke-width:1;"/><polygon fill="#181818" points="523.28,318.11,517.0809,325.7632,521.9821,322.9386,524.8067,327.8398,523.28,318.11" style="stroke:#181818;stroke-width:1;"/><text fill="#000000" font-family="sans-serif" font-size="13" lengthAdjust="spacing" textLength="73.6899" x="515" y="378.9951">sm_evStop()</text></g><!--link state_move to state_openDoor--><g class="link" data-entity-1="ent0004" data-entity-2="ent0010" data-link-type="dependency" data-source-line="29" id="lnk13"><path d="M462.69,681.13 C485.81,708.76 505.0902,731.8079 523.7702,754.1379" fill="none" id="state_move-to-state_openDoor" style="stroke:#181818;stroke-width:1;"/><polygon fill="#181818" points="527.62,758.74,524.9133,749.2704,524.4118,754.905,518.7772,754.4035,527.62,758.74" style="stroke:#181818;stroke-width:1;"/><text fill="#000000" font-family="sans-serif" font-size="13" lengthAdjust="spacing" textLength="210.6279" x="502" y="725.4951">elevio_floorSensor() = em_nextFloor</text></g><!--link state_openDoor to state_stationary--><g class="link" data-entity-1="ent0010" data-entity-2="ent0003" data-link-type="dependency" data-source-line="34" id="lnk14"><path d="M669.64,772.83 C689.46,761.77 708.07,747.43 721,729 C797.6,619.83 787.23,547.99 727,429 C701.64,378.9 655.0032,344.8424 610.9732,320.9424" fill="none" id="state_openDoor-to-state_stationary" style="stroke:#181818;stroke-width:1;"/><polygon fill="#181818" points="605.7,318.08,611.7016,325.889,610.0944,320.4653,615.5181,318.8581,605.7,318.08" style="stroke:#181818;stroke-width:1;"/><text fill="#000000" font-family="sans-serif" font-size="13" lengthAdjust="spacing" textLength="104.0063" x="803.6567" y="543.9951">timer_isTimeOut()</text><text fill="#000000" font-family="sans-serif" font-size="13" lengthAdjust="spacing" textLength="159.3198" x="776" y="560.3467">[em_evObstruction = False]</text><text fill="#000000" font-family="sans-serif" font-size="13" lengthAdjust="spacing" textLength="118.8599" x="796.23" y="576.6982">[sm_evStop = False]</text></g><?plantuml-src bLGzRy8m4DtpAzmjgOGAwbQH30YnjGpGAKLH6gwj9M97jaEBIlzxBt4-R8UWbe60xzvxT-TtYMztP3A9Y5IfWWI_XNeko0E10npRltv0xke3oXFAgF83ptFpzxpFoRdYOaa5P8fovazc0NbXJKmgNYnAfV0y826PZQAc0n6hp2ed5QUcKeI_7JWN6s2I2sI-2SdKmBVPOnHvmk1BhIeAFmWl8QzsEAqQrF4yUGVrr9DTBIBdHnZ8rxKZNrpzm51M2W5CHtTuJcAP9t3Su23h4QxIWuHTesCIVti4F-QnW7H_slB7AZgVPn-SPX15TLfi-S18x4aikDs4jepTHkGMtzU-VfLAb7fsVGlaJr9B_ic6OlF_Ydc6MDy1Ko16RtaME9YsbAieTB_MEfyl3BeizlZe_688E97EW4E3_RGUo-rfyGBOKaClxaXe3T4RWfg-5Cr1w2tqxtkdZstjWCUqQyicG0A-H_2rCBmY9yVpNCgHBTOeAhVuN9SrU-pIT_UFiQukTudSGLegHZU_?></g></svg>